<?xml version="1.0" standalone="no"?><!DOCTYPE svg PUBLIC "-//W3C//DTD SVG 1.1//EN" "http://www.w3.org/Graphics/SVG/1.1/DTD/svg11.dtd"><svg t="1782803856196" class="icon" viewBox="0 0 1024 1024" version="1.1" xmlns="http://www.w3.org/2000/svg" p-id="6654" xmlns:xlink="http://www.w3.org/1999/xlink" width="200" height="200"><path d="M510.378757 0c169.747014 104.897283 323.110938 154.501639 454.630742 142.783179 10.239431 202.456308-18.37409 367.823121-80.208877 498.830954 30.320093 5.688573 53.472585 31.969779 53.472585 63.029387v255.075607c0 35.15538-29.865007 64.167102-65.930559 64.167102H151.600467c-36.065552 0-65.816788-28.89795-65.816788-64.167102v-255.075607c0-31.912894 24.347092-58.819843 55.975557-63.484473C81.858563 511.175157 51.993556 344.727515 57.568357 135.956891c154.501639 7.850231 306.04522-24.688406 452.8104-135.956891z m77.193933 747.478473H470.729404v173.501473h56.9995v-59.730015h48.409755v-41.299039h-48.352869v-27.987779h52.619299l7.167601-44.48464z m144.319094 0h-88.059108l-46.191212 173.501473h57.739015l6.541859-27.475807h51.766013l6.598744 27.475807h57.682129l-46.07744-173.501473z m-432.502195-1.137714h-49.831898v174.525415h49.831898v-84.987278l38.909839 65.304816h4.550858l38.852953-65.304816v84.987278h49.888784V746.340759H381.703239l-41.128382 71.107161-41.185268-71.107161z m396.038443 54.496528l7.736459 48.580412h-31.002722l8.077773-48.580412h15.18849zM510.720071 75.487362C398.086329 160.759069 268.557525 203.082051 127.253375 195.914449c-5.005944 185.219932 25.484806 331.928226 84.077107 444.561969H814.603633c60.583301-113.771457 90.050108-259.683351 81.005278-438.873396-109.163713 9.670574-244.210433-39.137381-384.945726-126.11566z" p-id="6655"></path><path d="M511.971557 213.890339c30.718293 0 58.649186 12.799289 78.84362 33.335037 20.080662 20.421977 32.481751 48.466641 32.481751 79.24182v27.817122h12.344203c10.011888 0 18.203433 7.964002 18.203433 17.634575v187.154047a18.032776 18.032776 0 0 1-18.203433 17.805233H388.301983a17.97589 17.97589 0 0 1-18.203433-17.748347v-187.154047c0-9.670574 8.191545-17.634576 18.203433-17.634576h12.287318v-27.874007c0-30.718293 12.51486-58.762958 32.481751-79.184934A110.472085 110.472085 0 0 1 511.971557 213.890339zM511.971557 407.301817a35.269152 35.269152 0 0 0-35.781123 34.870951c0 14.050775 8.532859 26.167435 20.877062 31.685351l-19.625576 50.059441h69.059274l-18.203433-50.74207a34.700294 34.700294 0 0 0 19.454919-31.002722 35.326037 35.326037 0 0 0-35.838009-34.870951H511.971557zM511.971557 247.452919c-21.04772 0-40.21821 8.760402-54.155213 22.924949a79.64002 79.64002 0 0 0-22.754292 56.032443v27.817121h153.875896v-27.874007a79.64002 79.64002 0 0 0-22.868063-55.975557 75.77179 75.77179 0 0 0-54.041442-22.924949z" p-id="6656"></path></svg>