<?xml version="1.0" standalone="no"?><!DOCTYPE svg PUBLIC "-//W3C//DTD SVG 1.1//EN" "http://www.w3.org/Graphics/SVG/1.1/DTD/svg11.dtd"><svg t="1782804127506" class="icon" viewBox="0 0 1056 1024" version="1.1" xmlns="http://www.w3.org/2000/svg" p-id="8790" xmlns:xlink="http://www.w3.org/1999/xlink" width="206.25" height="200"><path d="M752 928c25.6 0 48 22.4 48 48s-22.4 48-48 48h-118.4l-96-96h214.4zM896 16c76.8 0 140.8 60.8 144 137.6V704c0 76.8-60.8 140.8-137.6 144H457.6l-96-96H896c25.6 0 44.8-19.2 48-44.8V160c0-25.6-22.4-48-48-48H160c-25.6 0-44.8 19.2-48 44.8v345.6l-96-96V160C16 83.2 76.8 19.2 153.6 16H896zM800 192c35.2 0 64 28.8 64 64v352c0 35.2-28.8 64-64 64H281.6L192 582.4V256c0-35.2 28.8-64 64-64h544z" p-id="8791"></path></svg>